# AST/ASF file generated using VICON BodyLanguage
# -----------------------------------------------
:version 1.10
:name VICON
:units
  mass 1.0
  length 0.45
  angle deg
:documentation
   .ast/.asf automatically generated from VICON data using
   VICON BodyBuilder and BodyLanguage model FoxedUp or BRILLIANT.MOD
:root
   order TX TY TZ RX RY RZ
   axis XYZ
   position 0 0 0  
   orientation 0 0 0 
:bonedata
  begin
     id 1 
     name lhipjoint
     direction 0.714689 -0.624256 0.315473 
     length 2.45343 
     axis 0 0 0  XYZ
  end
  begin
     id 2 
     name lfemur
     direction 0.34202 -0.939693 0  
     length 6.59069  
     axis 0 0 20  XYZ
    dof rx ry rz
    limits (-160.0 20.0)
           (-70.0 70.0)
           (-60.0 70.0)
  end
  begin
     id 3 
     name ltibia
     direction 0.34202 -0.939693 0   
     length 6.73476   
     axis 0 0 20   XYZ
    dof rx
    limits (-10.0 170.0)
  end
  begin
     id 4 
     name lfoot
     direction 0.0718085 -0.197292 0.977711   
     length 1.52607   
     axis -90 7.62852e-016 20   XYZ
    dof rx rz
    limits (-45.0 90.0)
           (-70.0 20.0)
  end
  begin
     id 5 
     name ltoes
     direction 1.53553e-011 -4.22024e-011 1   
     length 0.777832   
     axis -90 7.62852e-016 20   XYZ
    dof rx
    limits (-90.0 20.0)
  end
  begin
     id 6 
     name rhipjoint
     direction -0.727419 -0.612432 0.309497   
     length 2.50079  
     axis 0 0 0  XYZ 
  end
  begin
     id 7 
     name rfemur
     direction -0.34202 -0.939693 0   
     length 6.51665   
     axis 0 0 -20   XYZ
    dof rx ry rz
    limits (-160.0 20.0)
           (-70.0 70.0)
           (-70.0 60.0)
  end
  begin
     id 8 
     name rtibia
     direction -0.34202 -0.939693 0   
     length 6.48919   
     axis 0 0 -20   XYZ
    dof rx
    limits (-10.0 170.0)
 end
 begin
     id 9 
     name rfoot
     direction -0.112205 -0.308282 0.944655   
     length 1.68717  
     axis -90 -7.62852e-016 -20   XYZ
    dof rx rz
    limits (-45.0 90.0)
           (-20.0 70.0)
  end
  begin
     id 10 
     name rtoes
     direction -1.53583e-011 -4.21993e-011 1   
     length 0.846859   
     axis -90 -7.62852e-016 -20   XYZ
    dof rx
    limits (-90.0 20.0)
  end
  begin
     id 11 
     name lowerback
     direction -0.00119603 0.996364 -0.0851956   
     length 1.67242   
     axis 0 0 0   XYZ
    dof rx ry rz
    limits (-20.0 45.0)
           (-30.0 30.0)
           (-30.0 30.0)
  end
  begin
     id 12 
     name upperback
     direction -0.00531001 0.998318 0.0577248   
     length 1.64819   
     axis 0 0 0   XYZ
    dof rx ry rz
    limits (-20.0 45.0)
           (-30.0 30.0)
           (-30.0 30.0)
  end
  begin
     id 13 
     name thorax
     direction -0.00653676 0.995132 0.0983291   
     length 1.67429   
     axis 0 0 0   XYZ
    dof rx ry rz
    limits (-20.0 45.0)
           (-30.0 30.0)
           (-30.0 30.0)
  end
  begin
     id 14 
     name lowerneck
     direction 0.0141424 0.999886 0.00525412   
     length 1.59623   
     axis 0 0 0   XYZ
    dof rx ry rz
    limits (-20.0 45.0)
           (-30.0 30.0)
           (-30.0 30.0)
  end
  begin
     id 15 
     name upperneck
     direction -0.0640064 0.987178 -0.146232   
     length 1.59576   
     axis 0 0 0   XYZ
    dof rx ry rz
    limits (-20.0 45.0)
           (-30.0 30.0)
           (-30.0 30.0)
  end
  begin
     id 16
     name head
     direction -0.0222942 0.998496 -0.0500859  
     length 1.60959  
     axis 0 0 0   XYZ
    dof rx ry rz
    limits (-20.0 45.0)
           (-30.0 30.0)
           (-30.0 30.0)
  end
  begin
     id 17 
     name lclavicle
     direction 0.908549 0.392612 0.142806  
     length 2.80649  
     axis 0 0 0   XYZ
    dof ry rz
    limits (-20.0 10.0)
           (0.0 20.0)
  end
  begin
     id 18 
     name lhumerus
     direction 1 -4.48968e-011 1.08832e-028   
     length 4.2884   
     axis -180 -30 -90   XYZ
    dof rx ry rz
    limits (-60.0 90.0)
           (-90.0 90.0)
           (-90.0 90.0)
  end
  begin
     id 19
     name lradius
     direction 1 -4.48952e-011 -3.02642e-028   
     length 3.06552   
     axis -180 -30 -90   XYZ
    dof rx
    limits (-10.0 170.0)
  end
  begin
     id 20
     name lwrist
     direction 1 -4.49014e-011 1.58672e-027   
     length 1.53276   
     axis -1.65735e-015 90 90   XYZ
    dof ry
    limits (-180.0 0.0)
 end
  begin
     id 21 
     name lhand
     direction 1 -4.48928e-011 3.17344e-027   
     length 0.753045   
     axis -2.02492e-015 90 90   XYZ
    dof rx rz
    limits (-90.0 90.0)
           (-45.0 45.0)
  end
  begin
     id 22 
     name lfingers
     direction 1 -4.48958e-011 6.34687e-027   
     length 0.607124   
     axis -4.04985e-015 90 90   XYZ
    dof rx
    limits (0.0 90.0)
  end
  begin
     id 23
     name lthumb
     direction 0.707107 -6.34905e-011 0.707107   
     length 0.871712   
     axis -90 45 2.85299e-015   XYZ
    dof rx rz
    limits (-45.0 45.0)
           (-45.0 45.0)
  end
  begin
     id 24 
     name rclavicle
     direction -0.885098 0.45949 0.0739604   
     length 2.9478  
     axis 0 0 0   XYZ 
    dof ry rz
    limits (-10.0 20.0)
           (-20.0 0.0)
  end
  begin
     id 25 
     name rhumerus
     direction -1 -4.4898e-011 -2.61739e-027  
     length 4.52172   
     axis -180 30 90   XYZ
    dof rx ry rz
    limits (-90.0 60.0)
           (-90.0 90.0)
           (-90.0 90.0)
  end
  begin
     id 26 
     name rradius
     direction -1 -4.48945e-011 9.02552e-028   
     length 2.8914   
     axis -180 30 90   XYZ
    dof rx
    limits (-10.0 170.0)
  end
  begin
     id 27 
     name rwrist
     direction -1 -4.49018e-011 1.58672e-027   
     length 1.4457   
     axis -1.65735e-015 -90 -90   XYZ
    dof ry
    limits (-180.0 0.0)
  end
  begin
     id 28
     name rhand
     direction -1 -4.48825e-011 3.17344e-027   
     length 0.680541   
     axis -2.02492e-015 -90 -90   XYZ
    dof rx rz
    limits (-90.0 90.0)
           (-45.0 45.0)
  end
  begin
     id 29
     name rfingers
     direction -1 -4.49067e-011 6.34687e-027   
     length 0.54867   
     axis -4.04985e-015 -90 -90   XYZ
    dof rx
    limits (0.0 90.0)
  end
  begin
     id 30
     name rthumb
     direction -0.707107 -6.34833e-011 0.707107   
     length 0.787783   
     axis -90 -45 -2.85299e-015   XYZ
    dof rx rz
    limits (-45.0 45.0)
           (-45.0 45.0)
  end
:hierarchy
  begin
    root lhipjoint rhipjoint lowerback
    lhipjoint lfemur
    lfemur ltibia
    ltibia lfoot
    lfoot ltoes
    rhipjoint rfemur
    rfemur rtibia
    rtibia rfoot
    rfoot rtoes
    lowerback upperback
    upperback thorax
    thorax lowerneck lclavicle rclavicle
    lowerneck upperneck
    upperneck head
    lclavicle lhumerus
    lhumerus lradius
    lradius lwrist
    lwrist lhand lthumb
    lhand lfingers
    rclavicle rhumerus
    rhumerus rradius
    rradius rwrist
    rwrist rhand rthumb
    rhand rfingers
  end

#!OML:ASF E:\emotionWalksFemale\Project 1\Capture day 1\Session 1\Female1.ASF
:FULLY-SPECIFIED
:DEGREES
238
root 8.34752 15.0485 41.9478 -179.537 -6.22337 -180.624
lowerback 7.79188 1.83774 0.43416
upperback -4.38521 2.41548 -0.423287
thorax -8.98784 1.10396 -1.06054
lowerneck -7.09516 6.0869 -0.0308409
upperneck 9.76085 7.47855 5.40074
head 4.27579 3.90221 2.25983
rclavicle 2.14458e-014 2.72203e-015
rhumerus -51.8572 30.2515 -107.938
rradius 52.7856
rwrist -0.548917
rhand -1.27413 -55.7162
rfingers 7.12502
rthumb -155.631 95.8134
lclavicle 2.14458e-014 2.72203e-015
lhumerus -56.5216 -23.5023 104.003
lradius 52.8888
lwrist 17.3842
lhand 17.6625 -18.4055
lfingers 7.12502
lthumb 42.3516 6.06562
rfemur -10.1575 3.37558 19.5567
rtibia 33.5121
rfoot -25.0931 -21.1266
rtoes -1.05121
lfemur -11.6194 -15.0359 -25.3452
ltibia 32.6824
lfoot -25.4055 13.1193
ltoes -26.778
239
root 8.3461 15.0485 41.9473 -179.483 -6.13552 -180.639
lowerback 7.84233 1.80543 0.53666
upperback -4.49622 2.3722 -0.50834
thorax -9.1316 1.06944 -1.20583
lowerneck -7.18822 6.08953 -0.00146536
upperneck 10.2005 7.44109 5.46122
head 4.45419 3.88598 2.29625
rclavicle -1.12531e-014 -1.61513e-016
rhumerus -52.2904 30.2845 -108.356
rradius 52.8642
rwrist -0.537651
rhand -1.27244 -55.4571
rfingers 7.12502
rthumb -155.629 96.0726
lclavicle -1.12531e-014 -1.61513e-016
lhumerus -56.6397 -23.446 103.867
lradius 52.8103
lwrist 17.5014
lhand 16.8813 -18.6094
lfingers 7.12502
lthumb 41.6195 6.1069
rfemur -10.2473 3.44736 19.5326
rtibia 33.516
rfoot -25.0334 -21.3358
rtoes -1.7568
lfemur -11.6838 -15.0092 -25.3552
ltibia 32.7097
lfoot -25.5494 13.1201
ltoes -26.254
240
root 8.34362 15.0482 41.9468 -179.459 -6.04113 -180.568
lowerback 7.86923 1.83223 0.483244
upperback -4.57391 2.4097 -0.383036
thorax -9.23945 1.09268 -1.05153
lowerneck -7.21586 6.06453 -0.158125
upperneck 10.8934 7.37587 5.62252
head 4.21633 3.87767 2.15263
rclavicle 2.93207e-014 5.28022e-016
rhumerus -52.6636 30.4493 -108.403
rradius 52.8303
rwrist -0.349087
rhand -0.802011 -55.3402
rfingers 7.12502
rthumb -155.178 96.2509
lclavicle 2.93207e-014 5.28022e-016
lhumerus -56.6438 -23.28 103.988
lradius 52.742
lwrist 17.6138
lhand 17.7245 -18.0306
lfingers 7.12502
lthumb 42.4097 6.42068
rfemur -10.3128 3.51593 19.6053
rtibia 33.5318
rfoot -24.984 -21.558
rtoes -2.38963
lfemur -11.7361 -14.9847 -25.2657
ltibia 32.7397
lfoot -25.5359 13.2168
ltoes -26.0394
241
root 8.33912 15.0462 41.9435 -179.471 -5.88138 -180.531
lowerback 7.80207 1.83316 0.609455
upperback -4.58819 2.42574 -0.365292
thorax -9.21056 1.09297 -1.10356
lowerneck -7.15413 6.10417 -0.488202
upperneck 11.0762 7.41659 5.94445
head 4.23419 3.89943 2.30576
rclavicle 1.28418e-014 -3.47873e-016
rhumerus -52.9669 30.6611 -108.629
rradius 52.7514
rwrist -0.256295
rhand -0.697395 -55.2332
rfingers 7.12502
rthumb -155.078 96.3717
lclavicle 1.28418e-014 -3.47873e-016
lhumerus -56.5432 -23.0726 103.855
lradius 52.7241
lwrist 17.9386
lhand 19.1386 -17.291
lfingers 7.12502
lthumb 43.7318 6.69123
rfemur -10.3412 3.55281 19.6243
rtibia 33.5693
rfoot -24.9425 -21.319
rtoes -2.4026
lfemur -11.7089 -14.949 -25.2469
ltibia 32.7496
lfoot -25.4789 13.2901
ltoes -25.8109
242
root 8.33546 15.0433 41.9407 -179.471 -5.74998 -180.603
lowerback 7.7421 1.84592 0.499807
upperback -4.59328 2.43318 -0.311401
thorax -9.18765 1.10526 -0.983922
lowerneck -7.13437 6.10563 -0.772741
upperneck 11.2422 7.41945 6.12986
head 4.26226 3.89836 2.41001
rclavicle 2.2239e-015 -1.09332e-015
rhumerus -53.2842 30.8966 -108.794
rradius 52.8034
rwrist -0.242928
rhand -0.987191 -55.1105
rfingers 7.12502
rthumb -155.356 96.4562
lclavicle 2.2239e-015 -1.09332e-015
lhumerus -56.5916 -22.9901 104.038
lradius 52.5605
lwrist 17.4802
lhand 18.0592 -17.5957
lfingers 7.12502
lthumb 42.723 6.74744
rfemur -10.3825 3.56456 19.5127
rtibia 33.6318
rfoot -25.0057 -21.0333
rtoes -2.42539
lfemur -11.6624 -14.9072 -25.3587
ltibia 32.7287
lfoot -25.626 13.3065
ltoes -25.4624
243
root 8.33323 15.0417 41.9394 -179.477 -5.63373 -180.703
lowerback 7.72874 1.85624 0.556205
upperback -4.58793 2.44105 -0.454869
thorax -9.16492 1.10052 -1.16823
lowerneck -7.18866 6.09014 -0.773343
upperneck 11.3835 7.35869 6.33479
head 4.30849 3.87818 2.4748
rclavicle 1.88908e-014 4.4975e-015
rhumerus -53.36 30.8959 -109.078
rradius 52.7892
rwrist -0.201712
rhand -1.28402 -54.8255
rfingers 7.12502
rthumb -155.64 96.7027
lclavicle 1.88908e-014 4.4975e-015
lhumerus -56.5881 -23.076 103.853
lradius 52.4646
lwrist 17.1308
lhand 17.2261 -18.0653
lfingers 7.12502
lthumb 41.9428 6.54385
rfemur -10.4256 3.58086 19.3856
rtibia 33.712
rfoot -25.031 -21.0253
rtoes -2.62207
lfemur -11.5991 -14.8804 -25.4875
ltibia 32.6765
lfoot -25.8777 13.1215
ltoes -24.4688
244
root 8.33321 15.0438 41.9373 -179.416 -5.34752 -180.698
lowerback 7.6555 1.95519 0.444824
upperback -4.63434 2.56148 -0.408354
thorax -9.17716 1.16608 -1.07313
lowerneck -7.18118 6.06702 -0.943545
upperneck 11.5474 7.31234 6.51466
head 4.34491 3.85662 2.5577
rclavicle 2.13492e-014 1.71452e-015
rhumerus -53.5449 30.9524 -109.169
rradius 52.7796
rwrist -0.268032
rhand -1.5012 -54.7199
rfingers 7.12502
rthumb -155.848 96.7806
lclavicle 2.13492e-014 1.71452e-015
lhumerus -56.5635 -22.989 103.848
lradius 52.3628
lwrist 16.9289
lhand 16.6202 -18.3466
lfingers 7.12502
lthumb 41.3745 6.44961
rfemur -10.5708 3.77805 19.388
rtibia 33.7796
rfoot -24.8661 -21.0809
rtoes -2.73702
lfemur -11.6074 -14.7512 -25.4738
ltibia 32.615
lfoot -25.889 13.1479
ltoes -23.7406
245
root 8.33578 15.0485 41.935 -179.337 -4.78657 -180.676
lowerback 7.51676 2.10314 0.451094
upperback -4.65428 2.75555 -0.433136
thorax -9.11208 1.25873 -1.127
lowerneck -7.38868 5.9995 -0.875654
upperneck 11.9084 7.19978 6.41816
head 4.50108 3.80092 2.52965
rclavicle 1.60581e-015 2.91965e-016
rhumerus -53.7053 31.1232 -109.448
rradius 52.8159
rwrist -0.459577
rhand -1.86917 -54.7736
rfingers 7.12502
rthumb -156.201 96.6804
lclavicle 1.60581e-015 2.91965e-016
lhumerus -56.5523 -23.0219 103.721
lradius 52.3464
lwrist 17.0023
lhand 17.6434 -18.281
lfingers 7.12502
lthumb 42.3338 6.19619
rfemur -10.7684 4.17029 19.3915
rtibia 33.8244
rfoot -24.8032 -20.8772
rtoes -2.48131
lfemur -11.6163 -14.4047 -25.4484
ltibia 32.5632
lfoot -25.8315 13.5519
ltoes -24.3144
246
root 8.33033 15.0482 41.9313 -179.537 -5.01602 -180.716
lowerback 7.68231 2.00459 0.420203
upperback -4.61873 2.63032 -0.358022
thorax -9.17829 1.2033 -1.01729
lowerneck -8.21574 5.75138 -0.358216
upperneck 13.0319 6.85905 5.46806
head 5.05516 3.61068 2.19928
rclavicle 2.21862e-014 1.11816e-015
rhumerus -54.0585 31.3707 -109.597
rradius 52.9745
rwrist -0.696079
rhand -2.09363 -54.9369
rfingers 7.12502
rthumb -156.416 96.4893
lclavicle 2.21862e-014 1.11816e-015
lhumerus -56.5904 -22.9256 103.847
lradius 52.3494
lwrist 16.9635
lhand 18.566 -18.3525
lfingers 7.12502
lthumb 43.197 5.82344
rfemur -10.4794 3.96876 19.3375
rtibia 33.8479
rfoot -25.1239 -20.6628
rtoes -1.40006
lfemur -11.3632 -14.505 -25.5681
ltibia 32.5253
lfoot -25.6918 13.5759
ltoes -25.6235
247
root 8.32869 15.0449 41.9298 -179.642 -4.92158 -180.747
lowerback 7.65566 1.98747 0.485794
upperback -4.51595 2.61635 -0.393718
thorax -9.04575 1.19502 -1.08617
lowerneck -8.48037 5.77159 -0.624747
upperneck 13.3275 6.85172 5.83057
head 5.16769 3.61943 2.36932
rclavicle 5.19108e-014 6.75868e-015
rhumerus -54.1145 31.4583 -109.768
rradius 52.9816
rwrist -0.680528
rhand -1.90627 -55.0374
rfingers 7.12502
rthumb -156.237 96.412
lclavicle 5.19108e-014 6.75868e-015
lhumerus -56.4308 -22.8701 103.699
lradius 52.3298
lwrist 16.8703
lhand 18.281 -18.768
lfingers 7.12502
lthumb 42.9305 5.50248
rfemur -10.388 3.96507 19.3019
rtibia 33.8826
rfoot -25.1349 -20.8186
rtoes -2.10881
lfemur -11.2042 -14.4842 -25.6451
ltibia 32.4841
lfoot -25.7081 13.5913
ltoes -25.74
248
root 8.32792 15.0415 41.9302 -179.708 -4.81555 -180.794
lowerback 7.76397 1.99044 0.444774
upperback -4.50831 2.61736 -0.393756
thorax -9.10314 1.19785 -1.06775
lowerneck -8.74481 5.77217 -0.750463
upperneck 13.7331 6.82644 5.94977
head 5.3299 3.60982 2.44471
rclavicle 3.00662e-014 3.2551e-015
rhumerus -54.3 31.5408 -109.977
rradius 52.9639
rwrist -0.402773
rhand -1.81464 -55.0723
rfingers 7.12502
rthumb -156.149 96.3886
lclavicle 3.00662e-014 3.2551e-015
lhumerus -56.3966 -22.754 103.613
lradius 52.3562
lwrist 16.808
lhand 17.2899 -19.4134
lfingers 7.12502
lthumb 42.0026 5.17581
rfemur -10.3537 4.03482 19.2605
rtibia 33.917
rfoot -25.0409 -21.1477
rtoes -3.78772
lfemur -11.0882 -14.4754 -25.7238
ltibia 32.4453
lfoot -26.0379 13.4866
ltoes -23.4353
249
root 8.32766 15.0402 41.9309 -179.714 -4.71315 -180.877
lowerback 7.8111 2.02213 0.321333
upperback -4.53261 2.64625 -0.375777
thorax -9.16364 1.219 -0.986623
lowerneck -8.76748 5.75057 -0.753691
upperneck 13.8889 6.8129 5.78797
head 5.38858 3.59135 2.39943
rclavicle 2.90101e-014 5.06901e-015
rhumerus -54.5218 31.7481 -110.235
rradius 52.9066
rwrist -0.296127
rhand -2.37433 -55.2169
rfingers 7.12502
rthumb -156.686 96.1748
lclavicle 2.90101e-014 5.06901e-015
lhumerus -56.4525 -22.7374 103.668
lradius 52.4148
lwrist 16.6848
lhand 16.3379 -19.8086
lfingers 7.12502
lthumb 41.1095 5.07289
rfemur -10.3982 4.05465 19.1615
rtibia 33.969
rfoot -24.9996 -20.9248
rtoes -3.93099
lfemur -11.041 -14.3754 -25.822
ltibia 32.3968
lfoot -26.1544 13.427
ltoes -22.207
250
root 8.32491 15.0398 41.9319 -179.71 -4.75281 -180.896
lowerback 7.85443 2.00706 0.335347
upperback -4.58568 2.62695 -0.361549
thorax -9.24762 1.20727 -0.979425
lowerneck -8.70115 5.68842 -0.77247
upperneck 14.0301 6.74156 5.648
head 5.42818 3.54279 2.35583
rclavicle -3.73032e-014 -8.94531e-016
rhumerus -54.7542 31.8524 -110.477
rradius 52.8432
rwrist -0.321013
rhand -3.11958 -55.3749
rfingers 7.12502
rthumb -157.401 95.9279
lclavicle -3.73032e-014 -8.94531e-016
lhumerus -56.5208 -22.7594 103.775
lradius 52.3597
lwrist 16.4984
lhand 16.1323 -19.9416
lfingers 7.12502
lthumb 40.9164 5.00124
rfemur -10.4476 3.96751 19.1255
rtibia 34.0513
rfoot -24.973 -20.6674
rtoes -2.6915
lfemur -11.0102 -14.5406 -25.8609
ltibia 32.3265
lfoot -26.0064 13.5222
ltoes -22.2252
251
root 8.31988 15.0416 41.9315 -179.709 -4.84738 -180.919
lowerback 7.83586 1.95698 0.416293
upperback -4.61093 2.56531 -0.389813
thorax -9.26019 1.17041 -1.0449
lowerneck -8.72437 5.61384 -0.783111
upperneck 14.2802 6.62663 5.61478
head 5.51485 3.48007 2.34699
rclavicle 1.19147e-014 7.25564e-015
rhumerus -54.8631 31.8478 -110.629
rradius 52.9268
rwrist -0.42493
rhand -3.27458 -55.3546
rfingers 7.12502
rthumb -157.55 95.9303
lclavicle 1.19147e-014 7.25564e-015
lhumerus -56.4985 -22.7943 103.793
lradius 52.2381
lwrist 16.4826
lhand 15.0782 -20.046
lfingers 7.12502
lthumb 39.9253 5.20257
rfemur -10.4684 3.90127 19.0803
rtibia 34.1426
rfoot -25.123 -20.5472
rtoes -1.30423
lfemur -10.9577 -14.8804 -25.9092
ltibia 32.25
lfoot -26.075 13.553
ltoes -21.1561
